<?xml version="1.0" standalone="no"?>
<!DOCTYPE svg PUBLIC "-//W3C//DTD SVG 20010904//EN"
 "http://www.w3.org/TR/2001/REC-SVG-20010904/DTD/svg10.dtd">
<svg version="1.0" xmlns="http://www.w3.org/2000/svg"
 width="300.000000pt" height="225.000000pt" viewBox="0 0 300.000000 225.000000"
 preserveAspectRatio="xMidYMid meet">
<metadata>
Created by potrace 1.10, written by Peter Selinger 2001-2011
</metadata>
<g transform="translate(0.000000,225.000000) scale(0.100000,-0.100000)"
fill="white" stroke="none">
<path d="M1956 1671 c-40 -8 -53 -32 -38 -66 10 -21 18 -26 33 -22 12 3 30 0
40 -6 41 -26 73 61 33 90 -19 14 -23 14 -68 4z m69 -30 c11 -35 -3 -49 -47
-46 -64 5 -77 47 -18 58 49 9 59 7 65 -12z"/>
<path d="M2455 1555 c-22 -41 -44 -73 -50 -72 -5 2 -13 17 -17 33 -8 31 -52
64 -85 64 -10 0 -31 -7 -47 -15 -27 -14 -29 -14 -48 10 -24 30 -47 32 -82 4
-15 -11 -33 -18 -42 -15 -24 9 -70 -20 -84 -55 -12 -28 -11 -36 7 -68 13 -24
17 -44 13 -61 l-7 -25 -12 29 c-9 21 -15 26 -23 18 -14 -14 -4 -41 19 -49 10
-4 26 -17 36 -30 10 -13 29 -23 43 -23 20 0 24 -5 24 -29 0 -17 -5 -33 -10
-36 -19 -12 -243 -6 -251 6 -5 8 -26 9 -65 5 -33 -4 -69 -8 -81 -9 -34 -3 -28
-17 7 -17 l30 0 0 -61 c0 -52 -2 -60 -16 -55 -9 3 -30 6 -47 6 -60 0 -62 5
-62 162 0 86 4 146 10 150 5 4 27 8 48 8 40 0 39 3 42 -80 3 -85 5 -100 15
-100 6 0 10 42 10 105 l0 106 -72 -3 -73 -3 -3 -169 c-2 -115 1 -173 9 -182 8
-9 33 -14 75 -14 34 0 66 -4 69 -10 3 -5 29 -10 56 -10 28 0 48 3 46 8 -5 7
319 6 363 -2 14 -2 53 -1 88 3 46 5 68 4 80 -5 9 -8 36 -14 60 -14 35 0 42 3
42 20 0 21 33 29 45 10 3 -5 2 -10 -4 -10 -12 0 -12 -88 0 -96 12 -7 12 -44 0
-44 -6 0 -13 5 -16 10 -3 6 -26 10 -51 10 -32 0 -44 -4 -44 -15 0 -13 -29 -15
-204 -15 -112 0 -211 3 -220 6 -9 3 -16 12 -16 20 0 17 -86 20 -92 4 -2 -6
-35 -12 -75 -14 -39 -2 -76 -7 -82 -10 -13 -8 -16 -355 -3 -357 4 0 36 -1 72
-2 l65 -2 -1 113 c-1 61 3 112 7 112 5 0 9 -4 9 -9 0 -5 119 -9 265 -8 146 0
268 -3 272 -7 12 -12 103 -7 103 7 0 8 13 11 43 9 24 -2 60 3 80 12 l37 15 0
80 c0 66 3 80 17 83 24 5 25 89 1 96 -15 4 -18 16 -18 73 0 39 -5 71 -11 75
-6 3 -46 7 -89 8 -44 1 -82 5 -86 9 -10 10 -104 9 -104 -2 0 -12 -132 -23
-185 -15 -37 5 -43 9 -34 20 7 8 21 11 35 8 13 -4 30 -1 38 5 10 9 20 9 38 0
19 -8 33 -7 61 5 31 12 37 20 37 44 0 23 5 31 25 36 13 3 33 16 44 27 17 19
30 21 115 20 91 0 96 1 96 21 0 32 -118 218 -139 218 -4 0 -24 -34 -46 -75z
m126 -52 c28 -46 49 -87 46 -89 -3 -3 -55 -7 -116 -9 -81 -3 -111 0 -111 8 1
7 18 46 39 87 l39 75 7 -40 c11 -64 15 -75 31 -75 11 0 14 15 14 60 0 43 -4
60 -12 59 -33 -4 -41 1 -28 16 18 21 31 8 91 -92z m-396 81 c9 -4 21 -18 26
-31 7 -20 12 -23 23 -14 51 42 132 26 142 -29 4 -16 13 -31 20 -34 13 -5 12
-10 -1 -35 -21 -42 -19 -51 13 -51 26 -1 26 -1 7 -16 -11 -8 -32 -18 -46 -21
-22 -4 -25 -9 -21 -31 3 -17 -1 -29 -13 -39 -26 -19 -82 -17 -93 4 -9 14 -10
14 -16 -5 -8 -24 -26 -28 -43 -11 -15 15 -26 7 -61 -44 -24 -36 -27 -48 -19
-68 l10 -24 6 25 c5 18 9 21 15 12 4 -7 14 -11 21 -8 7 2 16 -2 19 -11 4 -9 9
-13 13 -10 3 4 0 13 -7 22 -8 9 -8 15 -2 15 6 0 14 -4 17 -10 3 -5 11 -10 17
-10 7 0 6 6 -2 15 -7 8 -18 15 -26 15 -7 0 -15 4 -18 8 -3 5 42 9 99 10 l105
1 0 -53 0 -53 -67 -5 c-38 -3 -107 -2 -155 1 -48 3 -137 6 -198 6 l-110 0 0
55 0 55 105 -1 c58 -1 106 -5 107 -10 1 -5 -7 -11 -18 -12 -10 -2 -23 -8 -28
-12 -4 -5 11 -4 35 1 24 6 44 11 44 12 1 1 6 15 13 30 7 15 12 41 12 57 0 25
-4 30 -24 30 -38 0 -59 27 -52 69 3 23 0 43 -9 55 -37 49 2 123 58 112 20 -4
30 -1 34 10 5 13 17 21 50 33 1 1 9 -2 18 -5z m-357 -411 c-2 -52 -6 -68 -18
-68 -8 -1 -14 -6 -12 -13 1 -7 -9 -12 -23 -12 -21 0 -25 5 -26 33 -1 17 -2 50
-4 72 -3 52 -1 55 46 55 l40 0 -3 -67z m642 10 c0 -58 -9 -86 -26 -83 -5 1
-10 -3 -12 -9 -2 -6 4 -11 14 -11 9 0 15 -2 12 -5 -3 -3 -19 -2 -36 1 -29 6
-31 9 -37 70 -9 84 -5 94 45 94 l40 0 0 -57z m116 27 c47 0 47 1 58 -82 l5
-38 -59 0 c-58 0 -60 1 -69 33 -7 25 -9 27 -10 10 -1 -13 -7 -23 -16 -23 -12
0 -15 13 -15 56 l0 57 31 -7 c17 -3 51 -6 75 -6z m94 -165 c0 -14 -5 -24 -11
-22 -6 1 -14 -4 -17 -12 -3 -10 0 -12 12 -8 10 4 15 3 11 -3 -3 -6 -39 -10
-80 -10 -41 0 -77 4 -80 10 -3 6 1 7 9 4 11 -4 16 0 16 11 0 9 -4 13 -10 10
-6 -4 -10 5 -10 19 0 26 1 26 80 26 79 0 80 0 80 -25z m-38 -135 c-3 -53 -8
-72 -20 -79 -28 -14 -105 -23 -111 -12 -3 5 -4 32 -3 60 l4 51 46 2 c44 1 45
2 10 5 -30 3 -38 9 -38 24 0 17 7 19 58 19 l57 0 -3 -70z m-692 -35 l0 -85
-40 0 c-38 0 -40 2 -40 30 0 23 3 28 16 23 12 -4 15 -2 12 8 -3 8 -11 13 -17
12 -6 -2 -11 4 -11 12 0 8 7 15 15 15 8 0 15 5 15 11 0 6 -7 9 -15 5 -10 -4
-15 1 -15 14 0 13 5 18 15 14 8 -4 15 -2 15 4 0 6 -6 13 -12 15 -7 3 4 6 25 6
l37 1 0 -85z m538 -12 c3 -83 3 -83 -23 -83 -14 0 -24 5 -22 11 1 6 -4 14 -12
17 -10 3 -12 0 -8 -12 4 -9 2 -16 -3 -16 -11 0 -14 153 -3 164 4 4 21 6 38 4
l30 -3 3 -82z m-628 7 l0 -60 -42 -1 c-28 -1 -34 -3 -17 -6 l27 -4 -3 -87 c-2
-48 -4 -93 -4 -99 -1 -9 -18 -13 -51 -13 l-50 0 0 148 c0 81 4 152 8 159 6 10
35 16 110 21 21 2 22 -2 22 -58z m325 38 c105 -1 196 1 203 6 9 5 12 -8 12
-52 l0 -59 -215 1 c-135 1 -216 5 -216 11 -1 6 -3 32 -4 58 -2 40 0 47 14 42
9 -2 102 -6 206 -7z"/>
<path d="M2114 1424 c-4 -15 -2 -30 5 -37 10 -9 11 -6 6 14 -8 31 9 47 30 29
11 -10 18 -10 29 -1 19 16 49 -14 41 -40 -4 -13 -2 -19 9 -19 9 0 16 -4 16
-10 0 -5 5 -10 12 -10 6 0 4 7 -5 18 -10 10 -17 28 -17 40 0 27 -14 35 -72 39
-44 2 -48 1 -54 -23z"/>
<path d="M733 1409 c-44 -13 -79 -62 -109 -153 l-26 -77 -36 7 -37 7 24 -27
c14 -14 34 -26 46 -26 21 0 22 -2 12 -45 l-10 -45 -116 0 c-64 0 -122 -4 -129
-8 -8 -6 -14 -49 -19 -130 l-6 -121 25 -10 c42 -16 988 -18 1016 -3 22 13 23
17 20 140 l-3 127 -170 1 -170 1 140 -7 c77 -4 150 -8 161 -9 12 0 24 -9 27
-20 4 -18 -4 -19 -142 -23 -80 -3 -311 -5 -513 -7 l-368 -2 0 25 c0 34 16 36
305 32 265 -4 385 1 385 16 0 5 -6 6 -12 2 -9 -5 -9 -2 1 9 15 18 26 23 16 7
-3 -5 -2 -10 2 -10 13 0 14 110 2 133 -8 14 -5 24 16 45 71 71 45 133 -35 85
-28 -16 -29 -16 -66 17 -68 59 -166 88 -231 69z m133 -35 c-3 -9 -6 -19 -6
-23 0 -5 -11 -6 -25 -3 -16 3 -27 -1 -31 -11 -4 -12 -14 -15 -36 -10 -23 4
-34 2 -43 -11 -11 -14 -13 -15 -19 -1 -3 8 -12 15 -21 15 -20 0 -19 13 4 34
18 17 20 17 40 -3 26 -26 31 -26 31 -1 0 13 7 20 20 20 11 0 20 -4 20 -10 0
-5 5 -10 10 -10 6 0 10 7 10 15 0 9 10 15 26 15 20 0 25 -4 20 -16z m64 -24
c14 -11 19 -20 13 -20 -7 0 -13 -9 -13 -21 0 -15 -5 -19 -15 -15 -21 8 -45 -3
-45 -21 0 -11 -5 -13 -17 -8 -10 5 -26 8 -35 9 -22 0 -23 25 -4 52 14 19 15
18 41 -6 l27 -25 -7 27 c-12 49 12 62 55 28z m-227 -62 l14 -33 7 33 c9 37 39
44 56 12 18 -33 -6 -91 -25 -60 -9 14 -52 12 -59 -2 -3 -9 -8 -8 -16 5 -6 9
-18 17 -25 17 -18 0 -18 1 -5 34 13 36 37 33 53 -6z m280 20 c30 -14 35 -39
12 -58 -13 -11 -19 -9 -35 8 -20 21 -27 62 -12 62 4 0 20 -6 35 -12z m99 6
c20 -19 -68 -119 -95 -108 -18 7 -23 24 -8 24 18 0 41 31 41 55 0 13 6 26 13
28 17 7 43 8 49 1z m-147 -50 c32 -35 31 -52 -2 -65 -16 -6 -40 -18 -55 -25
-27 -15 -44 -16 -151 -16 -85 0 -107 8 -107 36 0 52 59 60 61 9 l1 -28 14 33
c18 42 43 39 65 -6 l16 -32 7 40 c3 23 13 43 22 47 21 8 64 -13 64 -31 0 -8 5
-18 11 -21 7 -5 8 4 4 28 -12 61 10 74 50 31z m86 -126 c16 -31 17 -38 4 -48
-8 -7 -15 -19 -15 -26 0 -23 -26 -16 -38 10 -6 14 -28 43 -48 65 -36 41 -36
41 -11 41 13 0 30 7 37 15 11 14 15 14 32 -2 11 -10 29 -34 39 -55z m24 12 l6
-35 -20 35 c-10 19 -17 39 -14 43 9 14 22 -7 28 -43z m-144 -5 c1 -15 -81 -36
-130 -33 -43 3 -69 22 -34 25 10 1 45 6 78 11 70 11 86 11 86 -3z m-199 -1 c3
-3 1 -21 -5 -40 -8 -26 -16 -34 -34 -34 -13 0 -23 -4 -23 -10 0 -5 -7 -10 -16
-10 -10 0 -14 6 -10 18 2 9 7 32 11 50 6 28 10 32 39 32 18 0 35 -3 38 -6z
m246 -54 l23 -40 -96 0 c-94 0 -95 0 -95 24 0 20 5 24 33 24 18 0 48 7 67 15
19 9 37 16 40 16 3 1 15 -17 28 -39z m-183 -8 c-3 -3 -13 -7 -23 -8 -9 -2 -18
-8 -20 -13 -7 -20 -22 -11 -22 12 0 33 7 37 41 25 17 -6 27 -13 24 -16z m609
-200 c-3 -49 -11 -90 -17 -94 -7 -4 -39 -8 -72 -9 -126 -4 -881 2 -907 7 l-28
6 0 88 0 89 515 0 515 0 -6 -87z"/>
<path d="M418 913 c-13 -3 -18 -14 -18 -37 l0 -34 393 -4 c215 -2 426 -2 469
0 73 4 76 5 81 30 10 54 30 52 -457 51 -248 -1 -459 -3 -468 -6z m56 -19 c22
-22 20 -44 -4 -44 -24 0 -44 41 -26 52 14 10 12 10 30 -8z m116 -10 c14 -35
13 -36 -12 -32 -14 2 -24 13 -29 31 -6 23 -4 27 12 27 12 0 23 -10 29 -26z
m99 -4 c9 -26 8 -30 -8 -30 -21 0 -35 46 -17 54 6 2 12 5 13 5 0 1 6 -12 12
-29z m51 4 c13 -34 13 -34 -9 -34 -19 0 -31 18 -31 46 0 24 30 15 40 -12z m44
4 c9 -34 8 -38 -9 -38 -8 0 -15 3 -15 8 0 4 -3 17 -6 30 -5 16 -2 22 9 22 8 0
17 -10 21 -22z m38 -3 c12 -26 4 -46 -11 -29 -5 5 -12 19 -16 32 -9 31 12 29
27 -3z m508 -4 l0 -31 -240 0 -240 0 -10 26 c-6 14 -10 26 -10 27 0 1 113 3
250 5 l250 3 0 -30z m-796 3 c10 -26 7 -34 -13 -34 -12 0 -20 9 -23 25 -4 19
-1 25 12 25 10 0 21 -7 24 -16z m111 -5 c4 -11 4 -23 1 -26 -10 -10 -33 5 -39
26 -7 29 29 29 38 0z"/>
<path d="M1912 1355 c-18 -39 -16 -41 39 -53 49 -12 69 -10 69 7 0 6 -85 71
-94 71 -1 0 -8 -11 -14 -25z m88 -47 c0 -5 -9 -7 -20 -4 -11 3 -29 9 -40 12
-19 5 -26 24 -14 37 8 7 74 -32 74 -45z"/>
<path d="M1943 1267 c-10 -16 15 -30 41 -23 38 9 34 36 -5 33 -17 -1 -33 -6
-36 -10z"/>
<path d="M1183 1162 c-24 -32 -38 -61 -33 -66 5 -5 32 12 64 39 47 40 54 50
45 66 -16 30 -31 22 -76 -39z m67 30 c0 -5 -10 -17 -22 -28 -52 -45 -61 -47
-29 -6 31 39 51 53 51 34z"/>
<path d="M1107 1193 c-10 -17 -11 -86 -1 -90 12 -4 48 73 39 87 -7 12 -32 13
-38 3z"/>
<path d="M1200 1093 l-35 -16 30 -8 c39 -11 65 -2 65 22 0 22 -13 23 -60 2z"/>
<path d="M1411 798 c-1 -18 -6 -28 -17 -28 -10 0 -13 -6 -9 -19 4 -14 -1 -20
-22 -26 -20 -6 -23 -9 -11 -12 29 -7 57 16 64 52 3 18 4 40 1 47 -3 7 -6 1 -6
-14z"/>
</g>
</svg>
